<svg xmlns="http://www.w3.org/2000/svg" viewBox="0 0 64 64" width="64" height="64">
  <circle cx="32" cy="32" r="25.5" fill="#fff"/>
  <path d="M32 61C15.9 61 3 48.1 3 32S15.9 3 32 3s29 12.9 29 29-12.9 29-29 29zm-6.7-6.8c-2.9-6-4.6-12.6-4.9-19.3H9c1.1 9.1 7.6 16.7 16.3 19.3zm1-19.3c.4 7 2.5 13.7 5.7 19.6 3.3-6 5.2-12.7 5.7-19.6H26.3zm28.7 0H43.5c-.3 6.7-2 13.3-4.9 19.3C47.4 51.6 53.9 44 55 34.9zM9 29.1h11.5c.3-6.7 2-13.3 4.9-19.3C16.6 12.4 10.1 20 9 29.1zm17.3 0h11.4c-.4-6.9-2.3-13.6-5.7-19.6-3.3 6-5.2 12.7-5.7 19.6zM38.7 9.8c2.9 6 4.6 12.6 4.9 19.3h11.5C53.9 20 47.4 12.4 38.7 9.8z" fill="#666"/>
  <g transform="matrix(4 0 0 4 256 0)">
    <circle cx="-52" cy="4" r="4" fill="#4caf50"/>
    <path d="M-49.2 3.3c-.1-.1-.2-.1-.3-.1h-1.8V1.4c0-.1 0-.2-.1-.3 0-.1-.1-.1-.2-.1h-.8c-.1 0-.2 0-.3.1-.1.1-.1.2-.1.3v1.8h-1.8c-.1 0-.2 0-.3.1-.1.1-.1.2-.1.3v.8c0 .1 0 .2.1.3.1.1.2.1.3.1h1.8v1.8c0 .1 0 .2.1.3.1.1.2.1.3.1h.8c.1 0 .2 0 .3-.1.1-.1.1-.2.1-.3V4.8h1.8c.1 0 .2 0 .3-.1.1-.1.1-.2.1-.3v-.8c0-.1-.1-.2-.2-.3z" fill="#fff"/>
  </g>
</svg>
